<svg width="414" height="405" viewBox="0 0 414 405" fill="none" xmlns="http://www.w3.org/2000/svg">
<path d="M197.2 364.55C196.35 364.05 195.4 362.95 195.1 362.2C194.8 361.4 194.45 356.35 194.3 351C193.9 334.3 191.25 322.1 185.8 311.3C182.05 303.9 178.05 298.15 173.1 292.95C165.45 284.9 163.6 284.9 159.1 293.25C155.6 299.7 150.55 307.3 147.5 310.65C142.4 316.3 135.8 320 130.9 320C123.05 320 119.5 313.15 122.7 304C123.4 301.95 123.9 300.25 123.85 300.15C123.75 300.1 121.3 301.25 118.35 302.7C111.1 306.35 106.1 308.2 100.55 309.25C96.05 310.15 95.65 310.15 92.55 309.3C87.6 308 85 304.9 85 300.2C85 296.4 87.85 291.25 92.45 286.75C93.85 285.35 95 284.1 95 283.95C95 283.8 90.1 283.7 84.15 283.7C74.1 283.75 72.95 283.65 69.55 282.6C61.7 280.1 58.15 273.1 62.05 267.85C62.9 266.65 63 266.3 62.45 265.95C62.05 265.7 61.4 265.5 61 265.5C59.45 265.5 52.5 262.5 50.15 260.85C48.85 259.95 47 258.1 46.1 256.8C43.25 252.55 44 247.4 48.1 243.7C50.6 241.45 54.1 239.9 59.15 238.8C61.25 238.3 63 237.85 63 237.8C63 237.7 61.75 236.8 60.25 235.8C54.1 231.75 46.4 223.3 43.3 217.25C41.65 214.05 41.5 213.4 41.5 209.6C41.5 204.9 42.3 202.8 45.1 200.15C49.95 195.5 58.3 195.6 66.5 200.4C67.75 201.1 68.85 201.65 69 201.6C69.1 201.55 69.3 200.25 69.35 198.75C69.5 194.95 71.55 191.15 74.25 189.65C77.4 187.9 81.75 188.05 85.55 190.1C90.45 192.7 96.05 199.3 102.3 209.95C105.55 215.4 108.45 220 108.75 220C108.85 220 108.9 216.9 108.9 213.15C108.85 205.2 109.8 201.55 112.65 198.6C114.55 196.55 117.9 195 120.3 195C122.7 195 126.55 197.1 128.6 199.45C130.5 201.7 133.35 207.2 133.85 209.55C134 210.35 134.25 211 134.45 210.95C134.6 210.95 135.45 209.55 136.25 207.85C139.6 200.9 147.35 199.45 152.95 204.65C157.4 208.85 160.2 215.85 162.5 228.5C164.05 237.1 164.9 241.1 166.75 248.25C171.15 265.3 175.4 274.55 185.75 290C189.55 295.65 193.1 300.7 193.6 301.25C194.6 302.25 194.6 302.2 194.35 288.25C194.1 274.9 193.45 267.9 191.5 256.25C190.55 250.6 187.4 239.25 185.45 234.4C184.95 233.05 184.05 230.8 183.45 229.4C181.3 223.95 176.2 214.1 173.25 209.5C159.4 188.1 146.1 181.05 122 182.3C104.85 183.2 101.1 182.65 97.8 179C96.8 177.9 95.9 176.45 95.7 175.75C95.2 173.85 95.9 171.2 97.3 169.5L98.6 168H95.05C90.55 168 82.25 166.75 79.8 165.75C78.7 165.3 76.7 163.75 75.25 162.35C71.05 158.1 70.6 153.95 73.9 149.6C75.1 148 80.65 145 83.6 144.3C84.4 144.1 85 143.8 85 143.6C85 143.4 83.65 142.25 82 141.05C78.3 138.4 74 133.8 72.75 131.2C70.2 126 73.55 120 79 120C80.8 120 80.85 119.55 79.25 117.2C77.55 114.75 76.85 111.75 77.15 108.85C77.55 105.7 78.8 103.7 81.35 102.25C83.05 101.2 84.1 101 87.35 101C90.6 101 91.75 101.25 94.25 102.45C97.9 104.15 102.2 107.3 106.65 111.5C108.5 113.25 110.1 114.55 110.2 114.45C110.3 114.35 110.85 112.55 111.5 110.5C112.35 107.6 113.05 106.3 114.7 104.7C119.75 99.5999 127.15 101.2 131.3 108.3C134.55 113.85 136 122.3 134.5 127.2L133.75 129.6L131.55 129.35C128.75 129.05 127.8 128.05 125.75 123.3C123.75 118.65 122.55 116.75 122 117.3C121.35 118.05 120.5 122.35 120.5 124.95V127.5H122.9C124.2 127.5 125.55 127.7 125.95 127.95C126.6 128.35 130 145.55 130 148.4C130 149.05 130.45 150.2 131.05 150.9C132.65 153 138.6 159.05 138.85 158.85C138.95 158.75 138.6 157.2 138.05 155.45C136.1 148.95 135.2 137.7 136.7 138.3C137.2 138.5 137.65 137.8 138.2 135.85C139.25 132.2 141.2 130.5 144.3 130.5C146 130.5 146.85 130.8 148.1 131.95L149.75 133.4L150.05 142.85C150.4 153.4 151.15 157.75 153.7 164.1C155.95 169.65 158.95 174.8 163.1 180.35C167 185.6 167.45 185.95 168.2 184.9C168.7 184.2 169.45 184.9 172.85 189.15C175.1 191.95 177.6 195.15 178.35 196.25C182.4 201.9 188.3 212.7 190.75 218.9C191.5 220.9 192.25 222.4 192.35 222.3C192.7 221.95 189.55 211.4 187.9 207.5C185.95 202.9 182 195.25 177.25 187C174.15 181.65 173.8 180.75 174.55 180.6C175.1 180.5 175.5 180.35 175.5 180.25C175.5 180.15 173.05 175.95 170 170.95C164.45 161.75 163.95 160.45 165 157.8C166.1 154.8 170.9 153.8 173.25 156C175 157.6 179.6 165.65 190.85 186.5C192.35 189.2 193.85 190.85 194.35 190.3C194.6 190.1 194.7 187.05 194.7 183.55C194.6 175.15 193.2 169.3 189.2 160.6C183.7 148.7 174.55 139.25 156.45 126.7C152.55 124 148.3 120.85 147.05 119.7C144.85 117.7 144.75 117.5 144.8 114.8C144.8 112.45 145 111.8 146.2 110.55C147 109.75 148.6 108.8 149.8 108.45L151.95 107.8L149.85 105.5C140.45 95.4499 137.6 88.9499 139.75 82.5499C141.5 77.2499 144.95 74.8499 151 74.7999C155.35 74.7999 158.35 75.7499 164.9 79.3499C167.2 80.5999 169.15 81.4999 169.3 81.3499C169.45 81.1999 168.55 78.6499 167.35 75.6999C163.4 65.9999 162.75 63.6499 162.75 58.9499C162.75 55.0499 162.9 54.4499 164.25 52.1999C167.3 47.2499 173.5 45.4999 178.4 48.2499C179.6 48.9499 180.7 49.4999 180.75 49.4999C180.8 49.4999 180.95 47.1999 181.1 44.3999C181.75 31.8999 188.9 22.9499 198.9 22.1499C203.8 21.7499 207.3 23.1999 211.25 27.1999C216.15 32.1499 218.5 38.4999 218.5 46.6999C218.5 48.2499 218.6 49.4999 218.7 49.4999C218.8 49.4999 219.9 48.9499 221.05 48.2499C222.7 47.3499 224 46.9999 226.15 46.9999C230.8 46.9999 234.3 49.3999 236.35 53.9499C237.4 56.3499 237.35 62.4499 236.25 65.9999C234.75 70.8499 232.9 75.6499 231.4 78.6499C230.65 80.1999 230.15 81.4999 230.3 81.4999C230.45 81.4999 232.35 80.5499 234.45 79.3499C241 75.6499 243.65 74.7999 248.5 74.7499C252.4 74.7499 252.9 74.8499 255 76.2499C263.7 82.1499 261.9 93.6999 250.55 104.75C249.15 106.1 248 107.4 248 107.6C248 107.8 248.65 108 249.5 108C250.55 108 251.6 108.6 253.25 110.15C255.2 112.05 255.5 112.6 255.5 114.35C255.5 117.55 253.7 119.45 245.5 125.1C221.2 141.7 211.7 152.7 207.05 169.7C205.2 176.4 204.7 189.3 206.3 189.85C206.6 189.95 207.9 187.95 209.25 185.4C210.55 182.85 211.8 180.55 212 180.25C212.2 180 213.45 177.75 214.75 175.25C217.15 170.75 223 160.85 225.35 157.4C227.55 154.1 231.7 153.65 234.25 156.35C236.7 159.05 236.35 161.4 232.55 166.8C231.4 168.4 229.15 172 227.5 174.75C224.9 179.25 224.7 179.8 225.5 180.2C226.3 180.55 225.9 181.35 222.1 187.45C218.05 193.9 211 207.3 211 208.55C211 208.85 210.7 209.8 210.3 210.65C209.15 213.35 206.35 223.05 206.7 223.35C206.8 223.45 207.15 222.8 207.45 221.9C209.95 215.15 218 200.6 222.6 194.7C228.45 187.1 230.8 184.55 231.55 185.05C232.65 185.75 232.7 185.7 235.6 181.9C240.85 175 245.55 166.35 247.65 159.7C249 155.4 249.95 147.6 249.95 140.75C249.95 137.15 250.1 133.85 250.25 133.4C250.8 131.95 253.7 130.5 255.9 130.5C258.55 130.5 260.75 132.5 261.6 135.75C261.95 137 262.5 138 262.85 138C263.9 138 263.65 145.6 262.45 151.85C261.9 154.8 261.25 157.45 261.05 157.75C260.6 158.3 260 160.5 260.25 160.5C260.35 160.5 261.75 159.4 263.3 158L266.15 155.5H269.75C272.95 155.5 273.5 155.65 275.4 157.05L277.5 158.6L285.4 158.55C289.7 158.5 294.05 158.35 295 158.2C295.95 158.1 300.55 157.65 305.15 157.3C309.8 156.9 313.7 156.45 313.85 156.3C314.65 155.5 312.7 155.25 304.35 155C295.3 154.75 295.3 154.75 294.65 153.5C293.8 151.8 293.85 148.25 294.7 146.55C295.15 145.75 296.65 144.5 298.35 143.6L301.25 142.05L299.25 142C296.9 142 293.3 144.15 289.25 147.95C287.9 149.25 285.4 151.3 283.8 152.5C280.95 154.65 280.7 154.75 276.8 154.9C273.05 155.1 272.65 155 271.35 153.8C270.2 152.75 270 152.15 270 149.9C270 148.45 270.35 145.7 270.8 143.75C271.2 141.85 271.95 137.8 272.5 134.85C273.6 128.4 274.2 127.5 277.4 127.5C279.45 127.5 279.6 127.4 279.3 126.35C279.15 125.75 278.75 123.6 278.5 121.55C278.2 119.5 277.9 117.7 277.7 117.55C277.4 117.2 275.55 119.5 275.5 120.25C275.5 121.2 272.15 127.75 271.35 128.4C270.9 128.8 269.65 129.2 268.6 129.35C266.7 129.6 266.65 129.55 265.75 127.45C264.05 123.35 264.95 114.95 267.65 109.55C269.3 106.3 272.75 103.1 275.6 102.25C278.85 101.3 282.4 102.2 284.8 104.55C286.6 106.35 288.5 110.95 288.5 113.5C288.5 114.3 288.75 115 289 115C289.3 115 291.6 113.05 294.05 110.7C301.65 103.55 306.5 101 312.65 101C318.1 101 320.95 103.05 322.05 107.8C322.55 109.9 322.5 110.8 321.75 113.25C321.3 114.85 320.4 116.9 319.7 117.75C318.35 119.55 318.55 120 320.6 120C326.7 120 329.4 125.9 326 131.8C324.35 134.7 321.05 138.15 317.15 141.1C315.7 142.2 314.5 143.3 314.5 143.5C314.5 143.75 315.95 144.4 317.7 145C324.35 147.2 327.5 150.55 327.5 155.35C327.5 158.5 325.95 161.2 322.8 163.55C319.7 165.9 316.4 166.8 308.15 167.55C304.5 167.9 301.5 168.3 301.5 168.5C301.5 168.7 301.8 169.15 302.2 169.45C302.6 169.75 303.15 171 303.45 172.2C304.15 175 303.5 177.1 301.1 179.6C299.65 181.1 298.65 181.6 295.7 182.3C292.5 183.05 291.25 183.1 284.4 182.6C273.65 181.75 268 181.85 262.25 182.95C250.6 185.2 242.5 189.65 234.95 197.95C230.65 202.7 225.15 210.3 223.25 214.05C222.5 215.55 221.35 217.6 220.7 218.6C217.9 223.05 213.2 236.3 210.2 248.25C209.5 251 208.7 254.05 208.45 255C206.95 260.85 205.15 284.5 205 301.15C205 301.6 205.25 302 205.5 302C206.1 302 216.9 285.65 221.1 278.5C228.9 265.1 233.2 252.15 236.55 231.75C237.8 224.05 239.5 216.85 240.95 212.95C243.55 206.05 248.7 201.5 253.8 201.5C255.25 201.5 257 201.7 257.65 201.95C259.8 202.8 262.5 205.55 264 208.45L265.4 211.25L265.95 209.85C266.25 209.05 266.5 208.15 266.5 207.85C266.5 207.55 267.25 205.8 268.1 204C271.7 196.75 278.15 193.25 283.15 195.8C288.8 198.65 291.3 204.95 290.85 214.9C290.7 217.95 290.65 220.5 290.75 220.5C290.85 220.5 292.25 218.2 293.8 215.4C301.1 202.3 309.5 191.8 314.55 189.5C317.75 188.05 322.8 188.15 325.05 189.65C327 190.95 329.45 195.1 329.5 197.05C329.5 197.8 329.65 199.05 329.8 199.85L330.1 201.35L332.65 199.95C337.1 197.6 342.1 196.35 345.9 196.65C353.45 197.25 357.5 201.6 357.5 209.1C357.5 213.85 356.45 216.7 352.9 221.85C349.7 226.5 341.95 233.9 338.25 235.8C336.75 236.6 335.5 237.4 335.5 237.6C335.5 237.9 337.8 238.45 342.5 239.25C343.45 239.45 345.7 240.3 347.5 241.15C351.35 243.05 354.25 246.5 354.7 249.7C355.1 252.4 353.95 256.25 352.05 258.55C350.25 260.7 344.7 263.5 339.75 264.8C337.85 265.25 336.2 265.7 336.1 265.75C336.05 265.8 336.65 267.15 337.5 268.8C338.3 270.4 339 272.15 339 272.6C339 274.15 337.1 277.75 335.45 279.35C331.85 282.75 327.95 283.6 315.15 283.55C309.55 283.55 304.9 283.75 304.75 283.95C304.65 284.2 306.05 285.95 307.9 287.85C316.1 296.3 316.75 305.05 309.5 308.6C303.6 311.5 294.95 309.8 281.8 303.2C278.85 301.7 276.35 300.5 276.25 300.6C276.2 300.7 276.55 302 277.1 303.5C278.35 307.15 278.45 312.2 277.3 314.5C275.9 317.25 274.55 318.4 271.85 319.3C268.5 320.4 265.9 320 261.3 317.75C254.2 314.15 246.05 304.45 239.65 291.9C238.35 289.3 237.5 288.25 236.2 287.65C234.65 286.9 234.4 286.9 232.55 287.7C228.8 289.4 220.6 298.35 217.65 303.95C216.95 305.2 215.8 307.4 215 308.75C214.25 310.15 212.8 313.15 211.85 315.5C207.65 325.8 206.2 333.65 205.45 349.35C205.15 355.9 204.7 361.85 204.45 362.55C203.9 364 201.6 365.5 199.9 365.5C199.3 365.5 198.05 365.05 197.2 364.55ZM140.75 299.5C145.2 293.7 146.05 289.8 141.9 293.8C139.75 295.95 135.6 302.4 134.95 304.7L134.5 306.2L136.55 304.2C137.7 303.15 139.55 301 140.75 299.5ZM264.55 304.35C263.35 301.2 257.85 293.3 256.2 292.35C253.1 290.6 256.15 296.9 260.9 302.05C264.2 305.65 265.3 306.3 264.55 304.35ZM104.8 295C111.8 292.55 127.1 283.5 137.1 275.85C139.05 274.3 139.45 273.8 139 273.25C138.5 272.65 131.2 268.45 125.5 265.45C118.65 261.9 108.5 258.15 99 255.75C88.35 253.05 68.6 250.6 60.4 250.95C58.9 251.05 59.4 252 61.4 252.85C63.6 253.8 71.85 255.25 78.7 255.9C83 256.3 83.75 256.55 84.55 257.55C85.8 259.15 85.8 263.25 84.55 266.15C83.4 268.8 83.45 268.75 79.7 269.75C78.1 270.15 76.45 270.85 76.05 271.2C75.45 271.85 75.5 272 76.75 272.3C77.5 272.5 82.2 272.5 87.2 272.35C95.65 272.05 98.95 271.65 112 269.3C116.35 268.5 121.35 268.3 123.4 268.8C124.95 269.25 126 271.45 126 274.35C126 277.65 125.2 278.85 121.75 280.95C113.45 285.95 100.15 295.85 101.55 296C101.7 296 103.15 295.55 104.8 295ZM295.95 294.65C293 291.25 287.65 286.8 279.85 281.15C276.2 278.5 275.5 277.8 275.2 276.3C274.8 274 275.25 271.6 276.45 270.05C277.7 268.4 281.75 268.1 287.75 269.25C298.05 271.2 305.25 272.05 313.3 272.35C319.8 272.55 322.1 272.5 323 272C324.2 271.35 324.2 271.35 321.7 270.5C317.75 269.15 316.1 268.1 315.25 266.5C314.5 265.05 314.2 259.8 314.8 258.25C315.25 257.15 317.65 256 319.65 256C322.35 256 335.05 253.65 337.15 252.75C338.2 252.35 338.9 251.75 338.75 251.5C338 250.25 322 251.5 309.5 253.7C301.5 255.1 288.95 258.65 281.5 261.6C274.45 264.4 259.75 272.6 260.1 273.5C261.2 276.2 291.85 294.9 296.95 295.95C297.1 296 296.65 295.4 295.95 294.65ZM159.9 268.4C156.95 261.05 153.45 247.7 150.75 233.5C149.05 224.5 148.35 221.7 147.1 219.1C146.4 217.65 145.7 216.65 145.5 216.85C144.35 218.1 143.5 223.1 143 230.75C142.5 239 142.45 239.3 141.2 240.4C140.3 241.2 140.05 241.7 140.4 242.15C140.65 242.5 141.8 244.55 143 246.75C148.3 256.75 152.25 262.65 156.4 266.85C158.7 269.1 160.65 271 160.75 271C160.9 271 160.5 269.8 159.9 268.4ZM245.45 264.65C247.05 262.85 250.35 258.15 252.8 254.1C255.2 250.05 257.7 246.25 258.35 245.65C260.4 243.55 266.05 244.55 267.5 247.2C267.85 247.85 268.05 249.5 267.95 250.95C267.85 252.35 267.75 253.5 267.75 253.5C267.75 253.5 272.4 251.15 278.1 248.3C283.8 245.4 290.7 241.65 293.4 239.85C298.25 236.7 307.2 229.3 310.4 225.8C312.35 223.75 313.7 223.25 316.65 223.65C319.6 224.05 321.5 226.25 321.5 229.25C321.5 230.5 321.65 231.5 321.85 231.5C322.5 231.5 330.4 226.75 333.55 224.45C337.5 221.55 341.75 216.85 343.95 212.9C345.45 210.25 345.5 210.05 344.65 209.55C343.35 208.85 338.25 211.1 332.7 214.8C328.35 217.7 328.2 217.75 324.25 217.9C320.45 218.1 320.2 218 319 216.75C317.8 215.45 317.75 215.2 317.8 209.25L317.9 203.05L316.75 204.4C316.15 205.15 313.8 208.55 311.55 211.95C302.5 225.6 292.35 237.6 288.8 239C288.05 239.25 286 239.5 284.25 239.5C281.65 239.5 280.8 239.3 279.75 238.35C277.9 236.8 277.75 234.6 278.7 223.25C279.15 218.05 279.3 213.1 279.1 212.35L278.75 210.95L277.9 212.35C276.65 214.5 274.35 221.9 272 231C270.1 238.45 269.75 239.4 268.2 240.9C266.7 242.35 266.2 242.5 263.6 242.5C260.55 242.5 258.95 241.75 257.9 239.85C257.6 239.25 257.05 234.8 256.7 230C255.9 219.05 255 215.55 253.3 216.95C252.2 217.9 251.1 221.55 249.75 229C247.3 242.3 246.4 246.85 244.95 252.4C243.4 258.4 240.35 267.9 239.45 269.6C238.55 271.3 242.1 268.35 245.45 264.65ZM131.2 251.25C129.8 248.05 129.55 243.3 130.7 241.7C131.3 240.9 131.3 240.65 130.75 240C130.35 239.6 129.15 235.85 128 231.75C125.55 222.9 123.85 217.75 122.1 214.05C120.1 209.7 119.75 211.45 120.5 223.5C121.45 238.55 121.1 239.5 114.85 239.5C110.3 239.5 109.15 238.75 103.2 232.2C97.4 225.8 94.2 221.6 87.4 211.6C84.1 206.75 81.35 202.7 81.3 202.6C81.2 202.55 81.15 205.3 81.2 208.7C81.25 214.3 81.15 215.05 80.2 216.35C79.2 217.65 78.9 217.75 75.05 217.9L70.9 218.05L65.6 214.85C56.65 209.45 54.9 208.75 54.3 210.25C53.85 211.5 54.85 213.4 58.05 217.3C61.9 221.9 66.4 225.65 72.5 229.2L77.25 232L77.55 229.35C77.75 227.95 78.05 226.4 78.2 225.95C78.7 224.75 81.25 223.5 83.25 223.5C85.8 223.5 87.7 224.65 92 228.7C95.5 232 101.85 237 107.75 241C109.6 242.3 123.25 249.45 132.35 253.95C132.4 254 131.9 252.75 131.2 251.25ZM86.15 240.2C84.85 239.2 83.45 238.15 83.1 237.85C82.55 237.4 82.45 237.7 82.6 239.3C82.75 241.15 82.85 241.25 84.75 241.55C88.55 242.15 88.65 242.05 86.15 240.2ZM315.9 241.2C316.55 241 316.75 238 316.15 238C315.9 238.05 314.75 238.95 313.5 240L311.25 241.95L313.25 241.7C314.35 241.55 315.55 241.35 315.9 241.2ZM276.05 171.15C283.8 170.8 283.5 170.35 275 169.8C270.45 169.5 270.15 169.55 268.25 170.75C266.6 171.85 266.5 172 267.55 171.8C268.25 171.65 272.1 171.35 276.05 171.15ZM131.35 170.4C130.65 169.85 129.35 169.5 127.75 169.55C125.2 169.55 114.6 170.75 114.25 171.05C114.15 171.15 118.25 171.25 123.3 171.25C132.1 171.25 132.45 171.2 131.35 170.4ZM119.8 157.9C119.6 157.25 119.35 156.15 119.2 155.45C119.05 154.7 118.4 153.9 117.75 153.6C117.1 153.3 115 151.65 113 149.9C104.55 142.5 103.8 142 100.9 142L98.25 142.05L100.6 143.25C103.85 144.95 105 146.75 105 150.1C105 151.7 104.7 153.2 104.2 153.9C103.45 154.95 103.15 155 95.05 155C88.75 155 86.45 155.15 85.75 155.7C84.85 156.35 84.85 156.4 85.8 156.65C87.05 157.05 100.45 158 111 158.5C115.55 158.65 119.45 158.85 119.7 158.9C119.9 158.95 119.95 158.5 119.8 157.9ZM193.9 125.3L193.65 107.85L192.15 106.55C191.3 105.85 188.65 102.6 186.25 99.3999C182.05 93.6999 181 92.6499 181 94.2499C181 94.6499 180.55 95.4499 180 95.9999L179 96.9999L183.55 103.65C191.85 115.55 191.05 114 190.9 118.05C190.75 121.2 190.6 121.75 189.5 122.6C188.8 123.1 187.1 123.65 185.75 123.8C183.65 124.05 183 123.9 181.9 123C180.55 121.95 176.95 117.35 173.45 112.25L171.75 109.75L171.45 112.95C171.1 116.8 170.35 117.5 166.9 117.5H164.45L171.5 122.8C179.7 128.95 185.95 134.75 190.5 140.45C192.85 143.35 193.8 144.25 193.95 143.6C194.05 143.15 194 134.9 193.9 125.3ZM216.3 132.5C221.6 127.45 229.55 120.75 231.95 119.3L233.7 118.3L231.55 117.75C228.75 117.1 227.5 115.5 227.5 112.65V110.35L224.25 114.8C222.45 117.25 220.3 120.1 219.5 121.1C216.85 124.35 211.95 124.9 209.45 122.2C208.45 121.15 208.25 120.4 208.25 118.05C208.3 115.3 208.4 115 213 108.3C215.6 104.5 218.5 100.35 219.4 99.1499L221.1 96.8999L219.65 95.2999C218.9 94.4499 218.1 93.5499 217.95 93.3499C217.8 93.1499 216.45 94.5999 214.95 96.5999C213.5 98.5999 210.85 102 209.15 104.1L206 107.95V126.3V144.65L208.95 140.7C210.55 138.55 213.9 134.85 216.3 132.5ZM117.1 135.15L116.9 132.5H114.1L111.25 132.55L114.25 135.25C115.85 136.75 117.25 137.9 117.25 137.85C117.3 137.8 117.2 136.55 117.1 135.15ZM285.7 132.6C284.4 132.5 283.35 132.5 283.25 132.6C283.2 132.7 283 133.85 282.85 135.15L282.5 137.55L285.25 135.15L287.95 132.75L285.7 132.6ZM310.9 130.2C311.2 130.1 311.5 129.8 311.5 129.5C311.5 128.65 309 128.95 307.65 129.95L306.45 130.95L308.35 130.7C309.4 130.55 310.55 130.35 310.9 130.2ZM92.55 129.8C91.8 128.9 89.25 128.3 88.45 128.8C87.75 129.2 90.2 130.4 91.95 130.45C92.9 130.5 93 130.35 92.55 129.8ZM102.45 124.2C101.55 123.2 98.75 120.6 96.25 118.4C92.75 115.25 93.05 115.65 97.75 120.2C103.6 125.8 105.95 127.8 102.45 124.2ZM168.5 104.7C167.85 103.1 167.85 99.1999 168.45 98.0499C168.85 97.2999 167.95 96.5499 162.3 92.8999C152.8 86.6999 150.95 85.9499 151.75 88.5499C152.1 89.5999 167.95 106 168.65 106C168.8 106 168.75 105.4 168.5 104.7ZM243.45 93.8499C245.25 91.9999 247.15 89.7999 247.65 88.9999C248.55 87.5499 248.55 87.4999 247.65 87.4999C246.3 87.5499 242.95 89.1499 239.65 91.3999C238.05 92.4499 235.4 94.0999 233.75 94.9999C232.1 95.9499 230.65 96.7499 230.55 96.7999C230.5 96.8999 230.75 97.4499 231.2 98.0999C232.25 99.5499 232.2 102.6 231.2 104.65C230.55 105.9 231.45 105.25 235.3 101.75C238 99.2999 241.65 95.7499 243.45 93.8499ZM194 76.1499C194.25 64.5499 194.25 64.3999 195.45 63.4499C196.35 62.6999 197.4 62.4999 200.25 62.4999C203.9 62.4999 205 62.9999 205.6 64.9999C205.95 66.0499 206.75 53.0999 206.65 47.7499C206.6 41.5999 204.55 36.8999 201 34.8499L199.5 33.9499L197.3 36.0499C195.85 37.3499 194.65 39.0999 193.9 40.8999C192.9 43.4499 192.8 44.3999 192.95 50.2499C193.4 67.3499 193.4 67.4499 191.85 68.7999C190.8 69.6999 189.85 69.9999 188 69.9999C184.3 69.9999 183.3 69.3499 180.3 65.3499C177.8 61.9999 176.75 60.9999 175.5 60.9999C174.9 60.9999 178.05 66.8999 181.05 71.3999C185.2 77.5999 193.25 88.3999 193.5 88.1499C193.65 87.9999 193.85 82.6499 194 76.1499ZM209.8 83.6999C211.7 81.0499 213.7 78.2999 214.25 77.5499C214.8 76.7499 216.85 73.7999 218.75 70.9499C221.7 66.4999 222.8 64.6999 224.4 61.3999C224.5 61.1499 224.2 60.9999 223.8 60.9999C223.4 60.9999 221.45 62.8999 219.5 65.2499L215.95 69.4999H212.3C209.2 69.4999 208.55 69.3499 207.65 68.3999C207.1 67.7499 206.5 66.8999 206.35 66.4999C206.2 66.0999 206.05 70.8499 206.05 77.1499C206 83.3999 206.1 88.4999 206.15 88.4999C206.25 88.4999 207.9 86.3499 209.8 83.6999Z" fill="#A64A19"/>
<path d="M133.15 305.25C133.65 300.15 141 290 144.15 290C149 290 146.4 297 138.55 305.15C136.4 307.35 135.45 308 134.3 308H132.85L133.15 305.25Z" fill="#E09A66"/>
<path d="M263.75 307.3C261.65 306.4 256.5 300.65 254.55 297.05C251.9 292.1 252.85 289.2 256.7 290.5C259.65 291.45 266.5 301.8 266.5 305.25C266.5 307.45 265.65 308.1 263.75 307.3Z" fill="#E09A66"/>
<path d="M98.0004 297.55C98.0004 295.1 106.9 287.9 120.85 279C123.4 277.4 124 276.75 124.25 275.35C124.75 272.75 123.45 270.65 121.1 270.2C119.35 269.85 117.6 270.1 104.75 272.3C97.4504 273.55 92.1504 274 83.7504 274.05C76.9004 274.05 75.2004 273.9 74.1504 273.25C71.6004 271.55 73.6504 269.4 79.2504 267.9C81.4504 267.3 81.9004 266.95 82.8504 265C84.2004 262.25 84.2504 260.6 83.0504 259.05C82.3004 258.05 81.5004 257.85 77.4504 257.45C62.8504 256 56.5504 254.05 57.1004 251.15C57.5504 248.85 60.8004 248.7 76.5004 250.3C94.0004 252.1 107.05 255.2 119.1 260.45C122.35 261.85 125.05 263 125.2 263C125.75 263 139.4 270.75 140.4 271.65C142.15 273.3 141.65 274.85 138.7 277.2C126.3 287 106.95 297.6 100.15 298.35C98.2504 298.55 98.0004 298.5 98.0004 297.55Z" fill="#E09A66"/>
<path d="M293.749 296.75C284.199 292.8 261.199 278.55 258.149 274.65C257.199 273.45 258.35 271.7 261.35 269.7C264.45 267.65 276.049 261.7 279.999 260.1C296.099 253.7 319.849 249.15 335.049 249.6C338.749 249.7 341.699 250 341.999 250.3C342.749 251.05 340.85 253.35 338.6 254.3C336.55 255.15 323.799 257.5 321.149 257.5C319.149 257.5 316.749 258.65 316.299 259.75C315.749 261.15 315.949 263.5 316.749 265C317.549 266.6 319.899 268 323.399 269.05C326.249 269.9 326.849 270.65 325.799 272.25C325.349 272.9 324.4 273.65 323.7 273.8C322.95 274 318.099 274 312.799 273.85C303.799 273.55 297.6 272.85 286.1 270.75C280.35 269.65 278.749 270 277.399 272.55C276.049 275.2 276.75 276.4 281.85 280.05C291.5 286.95 300.949 295.65 300.999 297.65C300.999 299 298.349 298.65 293.749 296.75Z" fill="#E09A66"/>
<path d="M158.75 271.8C156.25 269.8 153.25 266.9 152.05 265.45C149.85 262.7 143.4 252.1 140.75 246.85C138.7 242.85 137.4 241.5 135.5 241.5C133.45 241.5 131.5 243.45 131.5 245.5C131.5 247.2 134.05 253.15 136.55 257.1C137.35 258.5 137.95 259.75 137.8 259.85C137.65 260 135.5 258.8 133.05 257.1C130.6 255.45 124.45 252.05 119.4 249.6C106.95 243.45 98.5 237.8 90.5 230.2C88.45 228.25 86 226.25 85.05 225.75C83.4 224.9 83.25 224.9 81.65 225.75C79.8 226.8 78.65 229.4 79.45 230.85C80.15 232.1 84.75 236.5 88 239C94.6 244 95.45 244.7 95.35 244.85C95.25 244.9 91.85 244.4 87.75 243.75C83.6 243.05 80.05 242.5 79.8 242.5C79.6 242.5 79.75 241.95 80.2 241.25C82.25 238.15 80.9 236.35 73.15 231.95C69.7 229.95 65.25 227.05 63.3 225.45C57.45 220.8 52 213.55 52 210.55C52 210.05 52.5 209.2 53.05 208.55C54.85 206.6 57.25 207.4 67.1 213.35C72.1 216.35 72.6 216.55 75.05 216.4C77.25 216.25 77.8 216 78.7 214.85C79.65 213.55 79.75 212.75 79.75 206.85V200.25H81C82 200.25 83.25 201.75 88.75 209.8C96.4 221 98.75 224.1 104.45 230.45C109.8 236.35 112 238 114.6 238C119.35 238 119.75 236.7 118.95 223.75C118.6 218.25 118.5 212.7 118.7 211.4C119 209.3 119.2 209 120.25 209C122.9 209 125.25 214.75 130.8 234.9C131.7 238.2 133.65 240.5 135.55 240.5C136.9 240.5 139.6 239.3 140.35 238.4C140.75 237.95 141.2 234.45 141.5 229.2C142 221.3 142.85 216.75 144.15 215.1C144.45 214.75 145.25 214.5 145.95 214.6C146.9 214.7 147.5 215.4 148.55 217.5C149.85 220.1 150.4 222.4 152.25 232C155.5 248.9 159.05 261.7 162.9 270.25C165.9 276.85 165.2 277.15 158.75 271.8Z" fill="#E09A66"/>
<path d="M235 275.05C235 274.85 235.8 272.95 236.75 270.85C238.9 266.2 241.5 258.45 243.45 250.9C244.9 245.35 245.8 240.8 248.25 227.5C248.9 223.8 249.8 219.7 250.25 218.45C251.25 215.55 253 213.8 254.45 214.25C256.7 214.95 257.8 219.25 258.25 229.25C258.6 236.7 259.05 238.6 260.85 240C262.75 241.5 264.7 241.3 266.7 239.4C268.25 237.9 268.6 236.95 270.5 229.5C272.85 220.35 275.15 213 276.4 210.85C277.25 209.45 279 208.65 279.95 209.2C280.95 209.85 281.05 214.2 280.25 223.85C279.7 230.7 279.6 234.2 279.95 235.1C280.95 237.7 284.1 238.7 287.3 237.5C290.9 236.1 300.75 224.35 310.45 209.95C316.1 201.45 317.55 199.7 318.7 200.15C319.5 200.45 319.55 201.2 319.4 207.2C319.25 213.75 319.3 213.95 320.5 215.25C321.6 216.45 322.05 216.55 324.3 216.4C326.4 216.2 327.65 215.65 331.25 213.25C343.35 205.2 350.3 205.8 345.45 214.45C341.75 220.95 335.8 226.2 325.8 231.75C322.8 233.4 319.85 235.25 319.2 235.85C317.8 237.15 317.65 239.25 318.8 240.9C319.25 241.55 319.5 242.15 319.4 242.25C319.3 242.35 317.9 242.65 316.25 242.95C314.6 243.25 311.25 243.8 308.8 244.25C306.4 244.7 304.3 245 304.2 244.9C304.1 244.8 305.65 243.5 307.6 242C313.75 237.3 318.7 233.05 319.35 231.9C320.3 230.15 320.1 228.7 318.75 227.1C316.5 224.4 313.85 224.65 311.3 227.9C309.5 230.2 299.8 238.15 295 241.3C292.3 243.05 285.1 247 278.95 250.15C272.8 253.25 266.45 256.65 264.85 257.7C263.3 258.8 261.9 259.55 261.75 259.45C261.65 259.35 262.55 257.65 263.8 255.75C265.05 253.85 266.15 251.75 266.35 251.1C266.75 249.45 265.65 247.7 263.6 246.7C262.05 245.95 261.65 245.95 260.6 246.55C259.9 246.95 257.2 250.8 254.55 255.15C249 264.2 245.65 268.2 239.9 272.45C235.95 275.45 235 275.95 235 275.05Z" fill="#E09A66"/>
<path d="M204.7 227.5C204.85 224.35 205.2 220.85 205.5 219.75C206.6 215.6 208.15 210.7 208.8 209.15C209.2 208.3 209.5 207.35 209.5 207.05C209.5 205.4 222.05 182.5 224.3 180.05C224.65 179.65 230 182.45 230 183C230 183.3 230.55 184.1 231.25 184.7L232.55 185.9L229.9 189C220.35 200.2 213.35 212.05 207.5 227C206.35 229.9 205.2 232.5 204.9 232.75C204.55 233.1 204.45 231.5 204.7 227.5Z" fill="#E09A66"/>
<path d="M190.95 224.65C185.15 210.15 179.95 201.2 170.9 190.1L167.55 186L168.85 183.75C170.35 181.35 171.7 180.5 174.25 180.5C175.9 180.5 176.05 180.65 179.65 187.15C187.8 201.7 190.05 206.6 192.55 215.2C194.4 221.8 195.65 232.5 194.55 232.5C194.3 232.5 192.7 228.95 190.95 224.65Z" fill="#E09A66"/>
<path d="M259.45 173.85C259.8 173.4 262.15 171.85 264.6 170.45L269.1 167.9L275.15 168.25C281.65 168.65 290.3 170.1 291.15 170.95C291.4 171.2 291.5 171.8 291.3 172.25C291.05 173 290.3 173.05 284.6 172.75C278.75 172.45 265.05 173.35 260.25 174.35C258.9 174.65 258.8 174.6 259.45 173.85Z" fill="#E09A66"/>
<path d="M135.25 173.4C133.6 173.1 126.8 172.9 120.15 172.9C108.8 172.9 108 172.85 108 172C108 171.05 109.25 170.45 113 169.55C116.25 168.8 123.7 168 127.8 168C130.95 168 131.7 168.2 134.1 169.65C135.55 170.5 137.55 171.85 138.5 172.6C140.45 174.15 140.3 174.2 135.25 173.4Z" fill="#E09A66"/>
<path d="M139.75 162.85C133.8 157.55 128.5 151.55 128.5 150.05C128.5 147.1 125.1 129.85 124.45 129.45C123.35 128.75 120.85 128.95 119.75 129.8C118.85 130.45 118.75 131.05 118.85 134.75C118.9 137.1 119.2 139.8 119.5 140.8C119.85 141.75 120 142.65 119.9 142.75C119.8 142.85 117.8 141.2 115.4 139.1C96.6 122.45 88.5 114.6 88.5 113.2C88.5 112 89.4 111 90.5 111C91.5 111 101.4 119.9 107 125.9C111.45 130.6 113.05 131.5 115.45 130.7C117.25 130.1 119 126.45 119 123.45C119 120.35 119.95 116.4 121 115C121.7 114.05 122 113.95 122.9 114.45C123.9 114.95 128.5 123.55 128.5 124.8C128.5 125.85 131 127.65 132.5 127.7L134.05 127.75L133.75 130.1C133.45 132 133.65 133 134.7 135.25C135.4 136.75 136.3 138.15 136.75 138.3C137.3 138.5 137.5 139.3 137.5 141.1C137.5 146.75 139.35 154.8 142 160.8C143.75 164.65 144.15 166 143.65 166C143.45 165.95 141.7 164.55 139.75 162.85Z" fill="#E09A66"/>
<path d="M256 165.5C256 165.2 256.2 164.6 256.45 164.1C256.7 163.65 257.4 161.9 258 160.25C258.65 158.6 259.3 156.9 259.55 156.45C260.35 154.8 262 144.85 262 141.55C262 138.55 262.1 138.1 263 137.85C264.4 137.5 266 133.7 266.15 130.35C266.25 127.65 266.3 127.6 267.65 127.6C269.55 127.65 270.65 126.5 272.45 122.35C274.8 117.1 275.25 116.35 276.7 115.5C278.6 114.4 279.4 115.5 280 120C280.5 123.95 281.7 128 282.9 129.9C283.45 130.75 284.1 131 285.75 131C288.2 131 287.05 132 299.15 119.6C308 110.55 308.9 110 310.8 112.05C311.7 113.05 311.7 113.1 304.5 120.05C297.05 127.25 283.85 139.5 281.7 141.2C281.05 141.75 280.4 142.1 280.3 141.95C280.15 141.8 280.35 139.9 280.75 137.75C281.55 133.05 281.3 131.3 279.6 130C276.6 127.65 275.2 129.2 274 136.35C273.45 139.3 272.7 143.35 272.3 145.25C271.25 150.05 271.3 150.85 272.9 152.3C274.05 153.45 274.6 153.55 276.85 153.4C279.65 153.15 282.65 151.25 287.75 146.45C289.15 145.15 291.5 143.3 293 142.3L295.75 140.5H301.65C308.85 140.5 308.85 140.85 301.7 144.25C298.15 145.95 296.85 146.85 296.25 148.05C295.4 149.65 295.6 152.05 296.65 152.9C297 153.2 301.2 153.5 306.05 153.6C315.2 153.75 316.5 154.05 316.5 156C316.5 156.5 316.15 157.15 315.75 157.5C314.9 158.2 302.9 159.35 290 159.95C277.1 160.55 276.6 160.5 274 158.6C270.6 156.1 268.45 156.3 264.75 159.55C261.7 162.2 256.75 166 256.25 166C256.1 166 256 165.75 256 165.5Z" fill="#E09A66"/>
<path d="M109.5 160C99.3 159.55 85.55 158.55 84.4 158.2C83.9 158.05 83.35 157.35 83.2 156.65C82.95 155.65 83.1 155.1 84 154.4C85 153.6 86.1 153.5 93.55 153.5C101.65 153.5 101.95 153.45 102.7 152.4C104.8 149.45 103 146.75 96.95 143.75C94.5 142.5 92.5 141.25 92.5 141C92.5 140.7 94.95 140.5 98.75 140.5H105.05L107.95 142.9C109.6 144.2 112.5 146.65 114.5 148.4C116.5 150.15 118.6 151.8 119.2 152.05C119.9 152.4 120.55 153.5 121.15 155.5C122.5 160.1 122.4 160.5 119.9 160.4C118.7 160.35 114.05 160.15 109.5 160Z" fill="#E09A66"/>
<path d="M204.5 128.1V106.45L207.65 102.6C209.35 100.5 212.05 97.05 213.6 95C215.15 92.9 216.8 90.9 217.25 90.5C218.05 89.85 218.2 89.9 218.95 91C219.4 91.7 220.5 93.1 221.45 94.1C224.45 97.5 227.5 96.75 237.4 90.35C243.1 86.7 247.7 84.9 249.35 85.65C252.65 87.15 249 92.15 236.25 103.7C228.5 110.7 227.8 112.05 230.2 114.85C231.4 116.2 231.55 116.25 235.75 116.15C240.9 116 240.9 116.35 235.45 119.55C228.3 123.8 215 135.95 210.2 142.6C208.55 144.85 206.65 147.35 205.9 148.2L204.55 149.75L204.5 128.1ZM218 119.55C223.6 112.6 230.5 102.5 230.5 101.15C230.5 100.15 227.85 97.6 226.5 97.3C224.8 96.95 222.4 98.4 220.65 100.95C209.7 116.45 208.75 118.3 210.8 120.55C212.95 122.95 215.6 122.55 218 119.55Z" fill="#E09A66"/>
<path d="M193.15 147.2C183.8 135 180.8 132.3 159.75 116.8C158.85 116.1 159.15 116.05 163.3 116C168.55 116 169.45 115.55 169.85 112.75L170.1 110.75L160.4 101C152.3 92.85 150.55 90.8 149.85 88.85C149.1 86.55 149.1 86.5 150.15 85.75C150.75 85.35 151.55 85 152 85C153.35 85 157.65 87.3 163.1 90.9C170.15 95.55 171.05 96 173.7 96C177.05 96 178.4 95.15 179.9 92.1L181.2 89.4L182.4 90.8C183 91.6 185.5 94.85 187.85 98C190.2 101.15 192.8 104.35 193.65 105.1L195.2 106.4L195.4 127.7C195.55 142.7 195.45 149 195.1 149C194.8 149 193.9 148.2 193.15 147.2ZM188.55 120.7C190 119.4 189.8 116.3 188.1 113.8C180.9 103.3 178.25 99.6 177.2 98.65C175.45 97.05 172.35 97.1 170.75 98.75C168.55 100.9 168.95 102.25 174.05 109.5C182.65 121.7 183.6 122.7 186.1 122C186.95 121.75 188.05 121.15 188.55 120.7Z" fill="#E09A66"/>
<path d="M302.5 132.25C302.5 131.65 306.8 127.85 308 127.4C309.35 126.9 314.8 127.75 315.3 128.6C315.45 128.85 314.9 129.65 314.05 130.45C312.95 131.5 311.85 131.95 309.9 132.15C306.65 132.55 302.5 132.6 302.5 132.25Z" fill="#E09A66"/>
<path d="M87.95 131.35C86.2 130.55 85 129.5 85 128.75C85 127.7 87.85 126.85 90.55 127.1C92.75 127.35 93.4 127.65 95.4 129.7L97.75 132L93.5 131.95C91.15 131.95 88.65 131.65 87.95 131.35Z" fill="#E09A66"/>
<path d="M188.1 84.9C178.95 72.45 174.3 65.05 173.4 61.65C172.75 59.25 175.25 58.2 178 59.7C178.65 60.1 180.45 62.05 182 64.1C184.25 67.05 185.1 67.85 186.65 68.2C188.2 68.6 188.75 68.5 189.9 67.65C191.95 66.15 192.25 64 191.5 56.6C190.3 44.8 191.55 38.45 195.75 34.55C197.4 33 198.4 32.5 199.6 32.5C202.5 32.5 205.05 34.85 207.15 39.35C208.15 41.55 208.25 42.35 208.05 49.75C208 54.15 207.85 59.5 207.85 61.6C207.75 65 207.9 65.55 208.95 66.7C209.9 67.7 210.65 68 212.3 68C214.4 68 214.55 67.85 217.95 63.85C221.9 59.05 223.95 57.85 225.5 59.25C226.65 60.25 226.5 61.5 224.8 65C223.9 66.95 218.8 74.8 215.75 79.05C215.2 79.8 213.1 82.75 211.05 85.6C207.05 91.2 205.55 93 204.95 93C204.7 93 204.5 86.95 204.4 79.55C204.25 67.15 204.2 66 203.3 65.05C202.15 63.8 198.8 63.6 197.2 64.75C195.7 65.75 195.55 67.15 195.5 79.6C195.45 90.6 195.25 93 194.5 93C194.3 93 191.4 89.35 188.1 84.9Z" fill="#E09A66"/>
</svg>
